<?xml version="1.0" encoding="utf-8"?>
<!-- Generator: Adobe Illustrator 16.0.0, SVG Export Plug-In . SVG Version: 6.00 Build 0)  -->
<!DOCTYPE svg PUBLIC "-//W3C//DTD SVG 1.1//EN" "http://www.w3.org/Graphics/SVG/1.1/DTD/svg11.dtd">
<svg version="1.1" id="图层_1" xmlns="http://www.w3.org/2000/svg" xmlns:xlink="http://www.w3.org/1999/xlink" x="0px" y="0px"
	 width="500px" height="500px" viewBox="0 0 500 500" enable-background="new 0 0 500 500" xml:space="preserve">
<g>
	<path fill-rule="evenodd" clip-rule="evenodd" d="M274.403,297.87c0.871-14.09,4.916-28.959,16.569-40.754
		c7.505-7.596,17.002-10.289,27.065-7.484c10.54,2.936,20.83,6.99,29.958,13.385c9.031,6.324,14.488,21.789,4.551,32.896
		c-3.328,3.719-7.295,5.992-12.488,6.416c-8.732,0.711-16.9,3.203-23.984,8.736c-5.143,4.016-10.711,7.244-17.277,8.586
		C286.857,322.091,274.334,312.009,274.403,297.87z"/>
	<path fill-rule="evenodd" clip-rule="evenodd" d="M266.962,222.157c12.771-0.029,20.808,12.793,15.14,24.148
		c-2.383,4.773-9.271,7.182-14.193,4.498c-5.878-3.207-10.248-7.912-11.844-14.672C253.98,227.31,258.016,222.177,266.962,222.157z"
		/>
	<path fill-rule="evenodd" clip-rule="evenodd" d="M319.029,222.759c-1.07,3.361,0.219,8.023-3.918,11.23
		c-5.259,4.078-11.418,4.002-15.352-1.385c-4.561-6.248-6.955-13.209-4.289-21.136c2.551-7.585,10.544-9.899,16.797-4.843
		C317.248,210.653,318.727,216.108,319.029,222.759z"/>
	<path fill-rule="evenodd" clip-rule="evenodd" d="M357.415,231.458c0.19,5.865-2.099,10.418-5.62,14.371
		c-2.936,3.295-9.322,3.217-13.278,0.076c-8.194-6.502-7.315-23.51,1.778-28.67c4.164-2.363,10.195-2.652,13.636,2.838
		C356.322,223.89,357.421,226.95,357.415,231.458z"/>
	<path fill-rule="evenodd" clip-rule="evenodd" d="M268.405,277.521c0.704,4.104-1.478,7.295-5.62,9.402
		c-4.053,2.063-8.004,1.949-11.791-0.619c-4.879-3.307-9.329-6.785-10.083-13.398c-0.838-7.354,3.599-12.701,11.057-12.625
		C261.016,260.372,268.414,267.817,268.405,277.521z"/>
</g>
</svg>
